<?xml version="1.0" encoding="UTF-8"?>
<!DOCTYPE svg PUBLIC "-//W3C//DTD SVG 20010904//EN" "http://www.w3.org/TR/2001/REC-SVG-20010904/DTD/svg10.dtd">
<svg xmlns="http://www.w3.org/2000/svg" version="1.0" width="420.000000pt" height="420.000000pt" viewBox="0 0 420.000000 420.000000" preserveAspectRatio="xMidYMid meet">
  <g transform="translate(0.000000,420.000000) scale(0.100000,-0.100000)" fill="#000000" stroke="none">
    <path d="M0 2100 l0 -2100 2100 0 2100 0 0 2100 0 2100 -2100 0 -2100 0 0 -2100z m2538 914 c141 -32 292 -126 383 -238 94 -117 142 -234 163 -399 l11 -88 58 -24 c152 -61 274 -213 318 -395 17 -74 16 -211 -4 -287 -49 -189 -195 -342 -371 -389 -79 -21 -1917 -20 -1999 1 -95 25 -177 72 -247 144 -271 276 -161 747 205 880 l60 22 0 87 c0 79 3 94 33 154 75 152 245 239 409 209 36 -7 87 -23 114 -36 l48 -25 31 53 c117 191 309 317 530 348 68 9 174 2 258 -17z" />
    <path d="M2027 2324 c-4 -4 -7 -22 -7 -40 0 -40 -20 -61 -66 -70 -28 -5 -40 -2 -58 15 -32 30 -46 27 -91 -19 -29 -30 -37 -44 -30 -54 48 -65 47 -61 30 -103 -14 -36 -21 -41 -63 -49 l-47 -9 -3 -53 c-4 -64 7 -80 56 -84 32 -3 39 -8 55 -41 20 -42 21 -36 -28 -103 -7 -10 2 -26 37 -61 l47 -46 27 19 c15 10 32 23 39 28 8 6 26 2 51 -10 33 -16 40 -25 42 -54 5 -48 18 -60 67 -60 58 0 75 8 75 34 0 45 13 67 48 82 40 16 61 12 87 -16 24 -27 29 -26 75 16 45 41 50 62 20 89 -24 21 -25 43 -6 90 13 30 19 34 58 37 l43 3 0 65 0 64 -43 11 c-66 16 -94 82 -52 120 29 26 25 46 -18 88 -43 42 -61 46 -87 17 -22 -24 -46 -25 -85 -5 -22 11 -31 25 -37 57 l-9 43 -60 3 c-33 2 -63 0 -67 -4z m109 -299 c41 -17 67 -68 58 -115 -8 -39 -57 -80 -95 -80 -37 0 -85 24 -99 49 -27 51 2 130 54 151 30 12 42 12 82 -5z" />
  </g>
</svg>
